<svg id="Layer_1" data-name="Layer 1" xmlns="http://www.w3.org/2000/svg" viewBox="0 0 1921 923.97"><defs><style>.cls-1{fill:#4c56c0;stroke:#000;stroke-miterlimit:10;}</style></defs><title>footer-bg</title><path class="cls-1" d="M-108.5,396.5" transform="translate(1 -156.03)"/><path class="cls-1" d="M1919.5,157.5v922H-.5V601.6a981.55,981.55,0,0,0,90,96.9c57.09,54,101.2,84.13,161,125,73,49.86,110,74.74,139,72,61.74-5.84,80.92-77.54,192-246,75.13-113.94,114.08-172,182-226,56.36-44.8,168.33-133.79,251-100,113.11,46.24,61.6,277.47,182,333,55.85,25.76,115.53-1.57,206-43C1471.51,581.9,1672.54,478.92,1919.5,157.5Z" transform="translate(1 -156.03)"/></svg>